<?xml version="1.0" encoding="utf-8"?>
<svg width="444" height="444" viewBox="0 0 444 444" xmlns="http://www.w3.org/2000/svg" xmlns:xlink="http://www.w3.org/1999/xlink">
<rect width="444" height="444" fill="#ffffff"/>
<defs>
<rect id="p" width="12" height="12" />
</defs>
<g>
<use x="24" y="24" xlink:href="#p" fill="#000000" />
<use x="36" y="24" xlink:href="#p" fill="#000000" />
<use x="48" y="24" xlink:href="#p" fill="#000000" />
<use x="60" y="24" xlink:href="#p" fill="#000000" />
<use x="72" y="24" xlink:href="#p" fill="#000000" />
<use x="84" y="24" xlink:href="#p" fill="#000000" />
<use x="96" y="24" xlink:href="#p" fill="#000000" />
<use x="120" y="24" xlink:href="#p" fill="#000000" />
<use x="132" y="24" xlink:href="#p" fill="#000000" />
<use x="144" y="24" xlink:href="#p" fill="#000000" />
<use x="168" y="24" xlink:href="#p" fill="#000000" />
<use x="192" y="24" xlink:href="#p" fill="#000000" />
<use x="204" y="24" xlink:href="#p" fill="#000000" />
<use x="240" y="24" xlink:href="#p" fill="#000000" />
<use x="252" y="24" xlink:href="#p" fill="#000000" />
<use x="288" y="24" xlink:href="#p" fill="#000000" />
<use x="300" y="24" xlink:href="#p" fill="#000000" />
<use x="312" y="24" xlink:href="#p" fill="#000000" />
<use x="336" y="24" xlink:href="#p" fill="#000000" />
<use x="348" y="24" xlink:href="#p" fill="#000000" />
<use x="360" y="24" xlink:href="#p" fill="#000000" />
<use x="372" y="24" xlink:href="#p" fill="#000000" />
<use x="384" y="24" xlink:href="#p" fill="#000000" />
<use x="396" y="24" xlink:href="#p" fill="#000000" />
<use x="408" y="24" xlink:href="#p" fill="#000000" />
<use x="24" y="36" xlink:href="#p" fill="#000000" />
<use x="96" y="36" xlink:href="#p" fill="#000000" />
<use x="156" y="36" xlink:href="#p" fill="#000000" />
<use x="192" y="36" xlink:href="#p" fill="#000000" />
<use x="228" y="36" xlink:href="#p" fill="#000000" />
<use x="240" y="36" xlink:href="#p" fill="#000000" />
<use x="252" y="36" xlink:href="#p" fill="#000000" />
<use x="264" y="36" xlink:href="#p" fill="#000000" />
<use x="276" y="36" xlink:href="#p" fill="#000000" />
<use x="288" y="36" xlink:href="#p" fill="#000000" />
<use x="300" y="36" xlink:href="#p" fill="#000000" />
<use x="312" y="36" xlink:href="#p" fill="#000000" />
<use x="336" y="36" xlink:href="#p" fill="#000000" />
<use x="408" y="36" xlink:href="#p" fill="#000000" />
<use x="24" y="48" xlink:href="#p" fill="#000000" />
<use x="48" y="48" xlink:href="#p" fill="#000000" />
<use x="60" y="48" xlink:href="#p" fill="#000000" />
<use x="72" y="48" xlink:href="#p" fill="#000000" />
<use x="96" y="48" xlink:href="#p" fill="#000000" />
<use x="132" y="48" xlink:href="#p" fill="#000000" />
<use x="156" y="48" xlink:href="#p" fill="#000000" />
<use x="180" y="48" xlink:href="#p" fill="#000000" />
<use x="192" y="48" xlink:href="#p" fill="#000000" />
<use x="204" y="48" xlink:href="#p" fill="#000000" />
<use x="216" y="48" xlink:href="#p" fill="#000000" />
<use x="228" y="48" xlink:href="#p" fill="#000000" />
<use x="240" y="48" xlink:href="#p" fill="#000000" />
<use x="300" y="48" xlink:href="#p" fill="#000000" />
<use x="336" y="48" xlink:href="#p" fill="#000000" />
<use x="360" y="48" xlink:href="#p" fill="#000000" />
<use x="372" y="48" xlink:href="#p" fill="#000000" />
<use x="384" y="48" xlink:href="#p" fill="#000000" />
<use x="408" y="48" xlink:href="#p" fill="#000000" />
<use x="24" y="60" xlink:href="#p" fill="#000000" />
<use x="48" y="60" xlink:href="#p" fill="#000000" />
<use x="60" y="60" xlink:href="#p" fill="#000000" />
<use x="72" y="60" xlink:href="#p" fill="#000000" />
<use x="96" y="60" xlink:href="#p" fill="#000000" />
<use x="120" y="60" xlink:href="#p" fill="#000000" />
<use x="132" y="60" xlink:href="#p" fill="#000000" />
<use x="156" y="60" xlink:href="#p" fill="#000000" />
<use x="168" y="60" xlink:href="#p" fill="#000000" />
<use x="180" y="60" xlink:href="#p" fill="#000000" />
<use x="204" y="60" xlink:href="#p" fill="#000000" />
<use x="240" y="60" xlink:href="#p" fill="#000000" />
<use x="288" y="60" xlink:href="#p" fill="#000000" />
<use x="336" y="60" xlink:href="#p" fill="#000000" />
<use x="360" y="60" xlink:href="#p" fill="#000000" />
<use x="372" y="60" xlink:href="#p" fill="#000000" />
<use x="384" y="60" xlink:href="#p" fill="#000000" />
<use x="408" y="60" xlink:href="#p" fill="#000000" />
<use x="24" y="72" xlink:href="#p" fill="#000000" />
<use x="48" y="72" xlink:href="#p" fill="#000000" />
<use x="60" y="72" xlink:href="#p" fill="#000000" />
<use x="72" y="72" xlink:href="#p" fill="#000000" />
<use x="96" y="72" xlink:href="#p" fill="#000000" />
<use x="132" y="72" xlink:href="#p" fill="#000000" />
<use x="156" y="72" xlink:href="#p" fill="#000000" />
<use x="168" y="72" xlink:href="#p" fill="#000000" />
<use x="192" y="72" xlink:href="#p" fill="#000000" />
<use x="204" y="72" xlink:href="#p" fill="#000000" />
<use x="252" y="72" xlink:href="#p" fill="#000000" />
<use x="276" y="72" xlink:href="#p" fill="#000000" />
<use x="288" y="72" xlink:href="#p" fill="#000000" />
<use x="312" y="72" xlink:href="#p" fill="#000000" />
<use x="336" y="72" xlink:href="#p" fill="#000000" />
<use x="360" y="72" xlink:href="#p" fill="#000000" />
<use x="372" y="72" xlink:href="#p" fill="#000000" />
<use x="384" y="72" xlink:href="#p" fill="#000000" />
<use x="408" y="72" xlink:href="#p" fill="#000000" />
<use x="24" y="84" xlink:href="#p" fill="#000000" />
<use x="96" y="84" xlink:href="#p" fill="#000000" />
<use x="132" y="84" xlink:href="#p" fill="#000000" />
<use x="144" y="84" xlink:href="#p" fill="#000000" />
<use x="156" y="84" xlink:href="#p" fill="#000000" />
<use x="180" y="84" xlink:href="#p" fill="#000000" />
<use x="192" y="84" xlink:href="#p" fill="#000000" />
<use x="252" y="84" xlink:href="#p" fill="#000000" />
<use x="264" y="84" xlink:href="#p" fill="#000000" />
<use x="276" y="84" xlink:href="#p" fill="#000000" />
<use x="288" y="84" xlink:href="#p" fill="#000000" />
<use x="300" y="84" xlink:href="#p" fill="#000000" />
<use x="312" y="84" xlink:href="#p" fill="#000000" />
<use x="336" y="84" xlink:href="#p" fill="#000000" />
<use x="408" y="84" xlink:href="#p" fill="#000000" />
<use x="24" y="96" xlink:href="#p" fill="#000000" />
<use x="36" y="96" xlink:href="#p" fill="#000000" />
<use x="48" y="96" xlink:href="#p" fill="#000000" />
<use x="60" y="96" xlink:href="#p" fill="#000000" />
<use x="72" y="96" xlink:href="#p" fill="#000000" />
<use x="84" y="96" xlink:href="#p" fill="#000000" />
<use x="96" y="96" xlink:href="#p" fill="#000000" />
<use x="120" y="96" xlink:href="#p" fill="#000000" />
<use x="144" y="96" xlink:href="#p" fill="#000000" />
<use x="168" y="96" xlink:href="#p" fill="#000000" />
<use x="192" y="96" xlink:href="#p" fill="#000000" />
<use x="216" y="96" xlink:href="#p" fill="#000000" />
<use x="240" y="96" xlink:href="#p" fill="#000000" />
<use x="264" y="96" xlink:href="#p" fill="#000000" />
<use x="288" y="96" xlink:href="#p" fill="#000000" />
<use x="312" y="96" xlink:href="#p" fill="#000000" />
<use x="336" y="96" xlink:href="#p" fill="#000000" />
<use x="348" y="96" xlink:href="#p" fill="#000000" />
<use x="360" y="96" xlink:href="#p" fill="#000000" />
<use x="372" y="96" xlink:href="#p" fill="#000000" />
<use x="384" y="96" xlink:href="#p" fill="#000000" />
<use x="396" y="96" xlink:href="#p" fill="#000000" />
<use x="408" y="96" xlink:href="#p" fill="#000000" />
<use x="144" y="108" xlink:href="#p" fill="#000000" />
<use x="192" y="108" xlink:href="#p" fill="#000000" />
<use x="204" y="108" xlink:href="#p" fill="#000000" />
<use x="216" y="108" xlink:href="#p" fill="#000000" />
<use x="240" y="108" xlink:href="#p" fill="#000000" />
<use x="252" y="108" xlink:href="#p" fill="#000000" />
<use x="264" y="108" xlink:href="#p" fill="#000000" />
<use x="276" y="108" xlink:href="#p" fill="#000000" />
<use x="288" y="108" xlink:href="#p" fill="#000000" />
<use x="48" y="120" xlink:href="#p" fill="#000000" />
<use x="72" y="120" xlink:href="#p" fill="#000000" />
<use x="84" y="120" xlink:href="#p" fill="#000000" />
<use x="96" y="120" xlink:href="#p" fill="#000000" />
<use x="120" y="120" xlink:href="#p" fill="#000000" />
<use x="132" y="120" xlink:href="#p" fill="#000000" />
<use x="144" y="120" xlink:href="#p" fill="#000000" />
<use x="204" y="120" xlink:href="#p" fill="#000000" />
<use x="216" y="120" xlink:href="#p" fill="#000000" />
<use x="228" y="120" xlink:href="#p" fill="#000000" />
<use x="276" y="120" xlink:href="#p" fill="#000000" />
<use x="288" y="120" xlink:href="#p" fill="#000000" />
<use x="312" y="120" xlink:href="#p" fill="#000000" />
<use x="324" y="120" xlink:href="#p" fill="#000000" />
<use x="372" y="120" xlink:href="#p" fill="#000000" />
<use x="408" y="120" xlink:href="#p" fill="#000000" />
<use x="24" y="132" xlink:href="#p" fill="#000000" />
<use x="48" y="132" xlink:href="#p" fill="#000000" />
<use x="60" y="132" xlink:href="#p" fill="#000000" />
<use x="108" y="132" xlink:href="#p" fill="#000000" />
<use x="144" y="132" xlink:href="#p" fill="#000000" />
<use x="156" y="132" xlink:href="#p" fill="#000000" />
<use x="168" y="132" xlink:href="#p" fill="#000000" />
<use x="180" y="132" xlink:href="#p" fill="#000000" />
<use x="204" y="132" xlink:href="#p" fill="#000000" />
<use x="216" y="132" xlink:href="#p" fill="#000000" />
<use x="228" y="132" xlink:href="#p" fill="#000000" />
<use x="252" y="132" xlink:href="#p" fill="#000000" />
<use x="312" y="132" xlink:href="#p" fill="#000000" />
<use x="336" y="132" xlink:href="#p" fill="#000000" />
<use x="396" y="132" xlink:href="#p" fill="#000000" />
<use x="408" y="132" xlink:href="#p" fill="#000000" />
<use x="36" y="144" xlink:href="#p" fill="#000000" />
<use x="84" y="144" xlink:href="#p" fill="#000000" />
<use x="96" y="144" xlink:href="#p" fill="#000000" />
<use x="108" y="144" xlink:href="#p" fill="#000000" />
<use x="132" y="144" xlink:href="#p" fill="#000000" />
<use x="144" y="144" xlink:href="#p" fill="#000000" />
<use x="156" y="144" xlink:href="#p" fill="#000000" />
<use x="192" y="144" xlink:href="#p" fill="#000000" />
<use x="216" y="144" xlink:href="#p" fill="#000000" />
<use x="264" y="144" xlink:href="#p" fill="#000000" />
<use x="276" y="144" xlink:href="#p" fill="#000000" />
<use x="324" y="144" xlink:href="#p" fill="#000000" />
<use x="360" y="144" xlink:href="#p" fill="#000000" />
<use x="384" y="144" xlink:href="#p" fill="#000000" />
<use x="396" y="144" xlink:href="#p" fill="#000000" />
<use x="408" y="144" xlink:href="#p" fill="#000000" />
<use x="24" y="156" xlink:href="#p" fill="#000000" />
<use x="36" y="156" xlink:href="#p" fill="#000000" />
<use x="48" y="156" xlink:href="#p" fill="#000000" />
<use x="72" y="156" xlink:href="#p" fill="#000000" />
<use x="84" y="156" xlink:href="#p" fill="#000000" />
<use x="108" y="156" xlink:href="#p" fill="#000000" />
<use x="144" y="156" xlink:href="#p" fill="#000000" />
<use x="156" y="156" xlink:href="#p" fill="#000000" />
<use x="180" y="156" xlink:href="#p" fill="#000000" />
<use x="192" y="156" xlink:href="#p" fill="#000000" />
<use x="216" y="156" xlink:href="#p" fill="#000000" />
<use x="228" y="156" xlink:href="#p" fill="#000000" />
<use x="264" y="156" xlink:href="#p" fill="#000000" />
<use x="312" y="156" xlink:href="#p" fill="#000000" />
<use x="336" y="156" xlink:href="#p" fill="#000000" />
<use x="396" y="156" xlink:href="#p" fill="#000000" />
<use x="36" y="168" xlink:href="#p" fill="#000000" />
<use x="84" y="168" xlink:href="#p" fill="#000000" />
<use x="96" y="168" xlink:href="#p" fill="#000000" />
<use x="108" y="168" xlink:href="#p" fill="#000000" />
<use x="144" y="168" xlink:href="#p" fill="#000000" />
<use x="156" y="168" xlink:href="#p" fill="#000000" />
<use x="216" y="168" xlink:href="#p" fill="#000000" />
<use x="300" y="168" xlink:href="#p" fill="#000000" />
<use x="324" y="168" xlink:href="#p" fill="#000000" />
<use x="336" y="168" xlink:href="#p" fill="#000000" />
<use x="396" y="168" xlink:href="#p" fill="#000000" />
<use x="408" y="168" xlink:href="#p" fill="#000000" />
<use x="36" y="180" xlink:href="#p" fill="#000000" />
<use x="132" y="180" xlink:href="#p" fill="#000000" />
<use x="144" y="180" xlink:href="#p" fill="#000000" />
<use x="156" y="180" xlink:href="#p" fill="#000000" />
<use x="180" y="180" xlink:href="#p" fill="#000000" />
<use x="228" y="180" xlink:href="#p" fill="#000000" />
<use x="264" y="180" xlink:href="#p" fill="#000000" />
<use x="312" y="180" xlink:href="#p" fill="#000000" />
<use x="336" y="180" xlink:href="#p" fill="#000000" />
<use x="384" y="180" xlink:href="#p" fill="#000000" />
<use x="396" y="180" xlink:href="#p" fill="#000000" />
<use x="408" y="180" xlink:href="#p" fill="#000000" />
<use x="72" y="192" xlink:href="#p" fill="#000000" />
<use x="84" y="192" xlink:href="#p" fill="#000000" />
<use x="96" y="192" xlink:href="#p" fill="#000000" />
<use x="156" y="192" xlink:href="#p" fill="#000000" />
<use x="168" y="192" xlink:href="#p" fill="#000000" />
<use x="180" y="192" xlink:href="#p" fill="#000000" />
<use x="204" y="192" xlink:href="#p" fill="#000000" />
<use x="240" y="192" xlink:href="#p" fill="#000000" />
<use x="264" y="192" xlink:href="#p" fill="#000000" />
<use x="276" y="192" xlink:href="#p" fill="#000000" />
<use x="312" y="192" xlink:href="#p" fill="#000000" />
<use x="324" y="192" xlink:href="#p" fill="#000000" />
<use x="360" y="192" xlink:href="#p" fill="#000000" />
<use x="396" y="192" xlink:href="#p" fill="#000000" />
<use x="408" y="192" xlink:href="#p" fill="#000000" />
<use x="24" y="204" xlink:href="#p" fill="#000000" />
<use x="36" y="204" xlink:href="#p" fill="#000000" />
<use x="48" y="204" xlink:href="#p" fill="#000000" />
<use x="84" y="204" xlink:href="#p" fill="#000000" />
<use x="120" y="204" xlink:href="#p" fill="#000000" />
<use x="132" y="204" xlink:href="#p" fill="#000000" />
<use x="144" y="204" xlink:href="#p" fill="#000000" />
<use x="156" y="204" xlink:href="#p" fill="#000000" />
<use x="204" y="204" xlink:href="#p" fill="#000000" />
<use x="216" y="204" xlink:href="#p" fill="#000000" />
<use x="240" y="204" xlink:href="#p" fill="#000000" />
<use x="252" y="204" xlink:href="#p" fill="#000000" />
<use x="264" y="204" xlink:href="#p" fill="#000000" />
<use x="276" y="204" xlink:href="#p" fill="#000000" />
<use x="288" y="204" xlink:href="#p" fill="#000000" />
<use x="312" y="204" xlink:href="#p" fill="#000000" />
<use x="324" y="204" xlink:href="#p" fill="#000000" />
<use x="336" y="204" xlink:href="#p" fill="#000000" />
<use x="372" y="204" xlink:href="#p" fill="#000000" />
<use x="396" y="204" xlink:href="#p" fill="#000000" />
<use x="24" y="216" xlink:href="#p" fill="#000000" />
<use x="84" y="216" xlink:href="#p" fill="#000000" />
<use x="96" y="216" xlink:href="#p" fill="#000000" />
<use x="132" y="216" xlink:href="#p" fill="#000000" />
<use x="144" y="216" xlink:href="#p" fill="#000000" />
<use x="156" y="216" xlink:href="#p" fill="#000000" />
<use x="180" y="216" xlink:href="#p" fill="#000000" />
<use x="192" y="216" xlink:href="#p" fill="#000000" />
<use x="228" y="216" xlink:href="#p" fill="#000000" />
<use x="252" y="216" xlink:href="#p" fill="#000000" />
<use x="276" y="216" xlink:href="#p" fill="#000000" />
<use x="300" y="216" xlink:href="#p" fill="#000000" />
<use x="312" y="216" xlink:href="#p" fill="#000000" />
<use x="324" y="216" xlink:href="#p" fill="#000000" />
<use x="336" y="216" xlink:href="#p" fill="#000000" />
<use x="408" y="216" xlink:href="#p" fill="#000000" />
<use x="36" y="228" xlink:href="#p" fill="#000000" />
<use x="48" y="228" xlink:href="#p" fill="#000000" />
<use x="72" y="228" xlink:href="#p" fill="#000000" />
<use x="84" y="228" xlink:href="#p" fill="#000000" />
<use x="108" y="228" xlink:href="#p" fill="#000000" />
<use x="132" y="228" xlink:href="#p" fill="#000000" />
<use x="144" y="228" xlink:href="#p" fill="#000000" />
<use x="168" y="228" xlink:href="#p" fill="#000000" />
<use x="204" y="228" xlink:href="#p" fill="#000000" />
<use x="216" y="228" xlink:href="#p" fill="#000000" />
<use x="324" y="228" xlink:href="#p" fill="#000000" />
<use x="336" y="228" xlink:href="#p" fill="#000000" />
<use x="348" y="228" xlink:href="#p" fill="#000000" />
<use x="372" y="228" xlink:href="#p" fill="#000000" />
<use x="384" y="228" xlink:href="#p" fill="#000000" />
<use x="396" y="228" xlink:href="#p" fill="#000000" />
<use x="408" y="228" xlink:href="#p" fill="#000000" />
<use x="48" y="240" xlink:href="#p" fill="#000000" />
<use x="60" y="240" xlink:href="#p" fill="#000000" />
<use x="84" y="240" xlink:href="#p" fill="#000000" />
<use x="96" y="240" xlink:href="#p" fill="#000000" />
<use x="108" y="240" xlink:href="#p" fill="#000000" />
<use x="120" y="240" xlink:href="#p" fill="#000000" />
<use x="132" y="240" xlink:href="#p" fill="#000000" />
<use x="168" y="240" xlink:href="#p" fill="#000000" />
<use x="192" y="240" xlink:href="#p" fill="#000000" />
<use x="216" y="240" xlink:href="#p" fill="#000000" />
<use x="240" y="240" xlink:href="#p" fill="#000000" />
<use x="252" y="240" xlink:href="#p" fill="#000000" />
<use x="312" y="240" xlink:href="#p" fill="#000000" />
<use x="324" y="240" xlink:href="#p" fill="#000000" />
<use x="348" y="240" xlink:href="#p" fill="#000000" />
<use x="384" y="240" xlink:href="#p" fill="#000000" />
<use x="396" y="240" xlink:href="#p" fill="#000000" />
<use x="408" y="240" xlink:href="#p" fill="#000000" />
<use x="36" y="252" xlink:href="#p" fill="#000000" />
<use x="60" y="252" xlink:href="#p" fill="#000000" />
<use x="72" y="252" xlink:href="#p" fill="#000000" />
<use x="120" y="252" xlink:href="#p" fill="#000000" />
<use x="144" y="252" xlink:href="#p" fill="#000000" />
<use x="168" y="252" xlink:href="#p" fill="#000000" />
<use x="180" y="252" xlink:href="#p" fill="#000000" />
<use x="204" y="252" xlink:href="#p" fill="#000000" />
<use x="228" y="252" xlink:href="#p" fill="#000000" />
<use x="240" y="252" xlink:href="#p" fill="#000000" />
<use x="276" y="252" xlink:href="#p" fill="#000000" />
<use x="288" y="252" xlink:href="#p" fill="#000000" />
<use x="336" y="252" xlink:href="#p" fill="#000000" />
<use x="348" y="252" xlink:href="#p" fill="#000000" />
<use x="408" y="252" xlink:href="#p" fill="#000000" />
<use x="24" y="264" xlink:href="#p" fill="#000000" />
<use x="36" y="264" xlink:href="#p" fill="#000000" />
<use x="60" y="264" xlink:href="#p" fill="#000000" />
<use x="72" y="264" xlink:href="#p" fill="#000000" />
<use x="96" y="264" xlink:href="#p" fill="#000000" />
<use x="132" y="264" xlink:href="#p" fill="#000000" />
<use x="144" y="264" xlink:href="#p" fill="#000000" />
<use x="156" y="264" xlink:href="#p" fill="#000000" />
<use x="168" y="264" xlink:href="#p" fill="#000000" />
<use x="204" y="264" xlink:href="#p" fill="#000000" />
<use x="228" y="264" xlink:href="#p" fill="#000000" />
<use x="240" y="264" xlink:href="#p" fill="#000000" />
<use x="252" y="264" xlink:href="#p" fill="#000000" />
<use x="264" y="264" xlink:href="#p" fill="#000000" />
<use x="276" y="264" xlink:href="#p" fill="#000000" />
<use x="300" y="264" xlink:href="#p" fill="#000000" />
<use x="324" y="264" xlink:href="#p" fill="#000000" />
<use x="336" y="264" xlink:href="#p" fill="#000000" />
<use x="372" y="264" xlink:href="#p" fill="#000000" />
<use x="408" y="264" xlink:href="#p" fill="#000000" />
<use x="72" y="276" xlink:href="#p" fill="#000000" />
<use x="84" y="276" xlink:href="#p" fill="#000000" />
<use x="108" y="276" xlink:href="#p" fill="#000000" />
<use x="120" y="276" xlink:href="#p" fill="#000000" />
<use x="144" y="276" xlink:href="#p" fill="#000000" />
<use x="168" y="276" xlink:href="#p" fill="#000000" />
<use x="204" y="276" xlink:href="#p" fill="#000000" />
<use x="252" y="276" xlink:href="#p" fill="#000000" />
<use x="312" y="276" xlink:href="#p" fill="#000000" />
<use x="324" y="276" xlink:href="#p" fill="#000000" />
<use x="336" y="276" xlink:href="#p" fill="#000000" />
<use x="372" y="276" xlink:href="#p" fill="#000000" />
<use x="384" y="276" xlink:href="#p" fill="#000000" />
<use x="396" y="276" xlink:href="#p" fill="#000000" />
<use x="408" y="276" xlink:href="#p" fill="#000000" />
<use x="24" y="288" xlink:href="#p" fill="#000000" />
<use x="48" y="288" xlink:href="#p" fill="#000000" />
<use x="60" y="288" xlink:href="#p" fill="#000000" />
<use x="96" y="288" xlink:href="#p" fill="#000000" />
<use x="108" y="288" xlink:href="#p" fill="#000000" />
<use x="144" y="288" xlink:href="#p" fill="#000000" />
<use x="156" y="288" xlink:href="#p" fill="#000000" />
<use x="192" y="288" xlink:href="#p" fill="#000000" />
<use x="204" y="288" xlink:href="#p" fill="#000000" />
<use x="216" y="288" xlink:href="#p" fill="#000000" />
<use x="240" y="288" xlink:href="#p" fill="#000000" />
<use x="252" y="288" xlink:href="#p" fill="#000000" />
<use x="276" y="288" xlink:href="#p" fill="#000000" />
<use x="336" y="288" xlink:href="#p" fill="#000000" />
<use x="360" y="288" xlink:href="#p" fill="#000000" />
<use x="372" y="288" xlink:href="#p" fill="#000000" />
<use x="384" y="288" xlink:href="#p" fill="#000000" />
<use x="396" y="288" xlink:href="#p" fill="#000000" />
<use x="408" y="288" xlink:href="#p" fill="#000000" />
<use x="36" y="300" xlink:href="#p" fill="#000000" />
<use x="48" y="300" xlink:href="#p" fill="#000000" />
<use x="72" y="300" xlink:href="#p" fill="#000000" />
<use x="84" y="300" xlink:href="#p" fill="#000000" />
<use x="120" y="300" xlink:href="#p" fill="#000000" />
<use x="144" y="300" xlink:href="#p" fill="#000000" />
<use x="156" y="300" xlink:href="#p" fill="#000000" />
<use x="168" y="300" xlink:href="#p" fill="#000000" />
<use x="204" y="300" xlink:href="#p" fill="#000000" />
<use x="228" y="300" xlink:href="#p" fill="#000000" />
<use x="264" y="300" xlink:href="#p" fill="#000000" />
<use x="276" y="300" xlink:href="#p" fill="#000000" />
<use x="288" y="300" xlink:href="#p" fill="#000000" />
<use x="324" y="300" xlink:href="#p" fill="#000000" />
<use x="408" y="300" xlink:href="#p" fill="#000000" />
<use x="24" y="312" xlink:href="#p" fill="#000000" />
<use x="48" y="312" xlink:href="#p" fill="#000000" />
<use x="60" y="312" xlink:href="#p" fill="#000000" />
<use x="72" y="312" xlink:href="#p" fill="#000000" />
<use x="96" y="312" xlink:href="#p" fill="#000000" />
<use x="132" y="312" xlink:href="#p" fill="#000000" />
<use x="144" y="312" xlink:href="#p" fill="#000000" />
<use x="168" y="312" xlink:href="#p" fill="#000000" />
<use x="180" y="312" xlink:href="#p" fill="#000000" />
<use x="204" y="312" xlink:href="#p" fill="#000000" />
<use x="264" y="312" xlink:href="#p" fill="#000000" />
<use x="276" y="312" xlink:href="#p" fill="#000000" />
<use x="312" y="312" xlink:href="#p" fill="#000000" />
<use x="324" y="312" xlink:href="#p" fill="#000000" />
<use x="336" y="312" xlink:href="#p" fill="#000000" />
<use x="348" y="312" xlink:href="#p" fill="#000000" />
<use x="360" y="312" xlink:href="#p" fill="#000000" />
<use x="372" y="312" xlink:href="#p" fill="#000000" />
<use x="396" y="312" xlink:href="#p" fill="#000000" />
<use x="120" y="324" xlink:href="#p" fill="#000000" />
<use x="132" y="324" xlink:href="#p" fill="#000000" />
<use x="216" y="324" xlink:href="#p" fill="#000000" />
<use x="228" y="324" xlink:href="#p" fill="#000000" />
<use x="240" y="324" xlink:href="#p" fill="#000000" />
<use x="276" y="324" xlink:href="#p" fill="#000000" />
<use x="300" y="324" xlink:href="#p" fill="#000000" />
<use x="312" y="324" xlink:href="#p" fill="#000000" />
<use x="360" y="324" xlink:href="#p" fill="#000000" />
<use x="384" y="324" xlink:href="#p" fill="#000000" />
<use x="396" y="324" xlink:href="#p" fill="#000000" />
<use x="408" y="324" xlink:href="#p" fill="#000000" />
<use x="24" y="336" xlink:href="#p" fill="#000000" />
<use x="36" y="336" xlink:href="#p" fill="#000000" />
<use x="48" y="336" xlink:href="#p" fill="#000000" />
<use x="60" y="336" xlink:href="#p" fill="#000000" />
<use x="72" y="336" xlink:href="#p" fill="#000000" />
<use x="84" y="336" xlink:href="#p" fill="#000000" />
<use x="96" y="336" xlink:href="#p" fill="#000000" />
<use x="132" y="336" xlink:href="#p" fill="#000000" />
<use x="180" y="336" xlink:href="#p" fill="#000000" />
<use x="192" y="336" xlink:href="#p" fill="#000000" />
<use x="204" y="336" xlink:href="#p" fill="#000000" />
<use x="216" y="336" xlink:href="#p" fill="#000000" />
<use x="240" y="336" xlink:href="#p" fill="#000000" />
<use x="252" y="336" xlink:href="#p" fill="#000000" />
<use x="264" y="336" xlink:href="#p" fill="#000000" />
<use x="288" y="336" xlink:href="#p" fill="#000000" />
<use x="300" y="336" xlink:href="#p" fill="#000000" />
<use x="312" y="336" xlink:href="#p" fill="#000000" />
<use x="336" y="336" xlink:href="#p" fill="#000000" />
<use x="360" y="336" xlink:href="#p" fill="#000000" />
<use x="372" y="336" xlink:href="#p" fill="#000000" />
<use x="396" y="336" xlink:href="#p" fill="#000000" />
<use x="408" y="336" xlink:href="#p" fill="#000000" />
<use x="24" y="348" xlink:href="#p" fill="#000000" />
<use x="96" y="348" xlink:href="#p" fill="#000000" />
<use x="120" y="348" xlink:href="#p" fill="#000000" />
<use x="132" y="348" xlink:href="#p" fill="#000000" />
<use x="144" y="348" xlink:href="#p" fill="#000000" />
<use x="156" y="348" xlink:href="#p" fill="#000000" />
<use x="168" y="348" xlink:href="#p" fill="#000000" />
<use x="180" y="348" xlink:href="#p" fill="#000000" />
<use x="204" y="348" xlink:href="#p" fill="#000000" />
<use x="228" y="348" xlink:href="#p" fill="#000000" />
<use x="252" y="348" xlink:href="#p" fill="#000000" />
<use x="276" y="348" xlink:href="#p" fill="#000000" />
<use x="288" y="348" xlink:href="#p" fill="#000000" />
<use x="312" y="348" xlink:href="#p" fill="#000000" />
<use x="360" y="348" xlink:href="#p" fill="#000000" />
<use x="24" y="360" xlink:href="#p" fill="#000000" />
<use x="48" y="360" xlink:href="#p" fill="#000000" />
<use x="60" y="360" xlink:href="#p" fill="#000000" />
<use x="72" y="360" xlink:href="#p" fill="#000000" />
<use x="96" y="360" xlink:href="#p" fill="#000000" />
<use x="120" y="360" xlink:href="#p" fill="#000000" />
<use x="132" y="360" xlink:href="#p" fill="#000000" />
<use x="168" y="360" xlink:href="#p" fill="#000000" />
<use x="204" y="360" xlink:href="#p" fill="#000000" />
<use x="216" y="360" xlink:href="#p" fill="#000000" />
<use x="252" y="360" xlink:href="#p" fill="#000000" />
<use x="288" y="360" xlink:href="#p" fill="#000000" />
<use x="312" y="360" xlink:href="#p" fill="#000000" />
<use x="324" y="360" xlink:href="#p" fill="#000000" />
<use x="336" y="360" xlink:href="#p" fill="#000000" />
<use x="348" y="360" xlink:href="#p" fill="#000000" />
<use x="360" y="360" xlink:href="#p" fill="#000000" />
<use x="396" y="360" xlink:href="#p" fill="#000000" />
<use x="408" y="360" xlink:href="#p" fill="#000000" />
<use x="24" y="372" xlink:href="#p" fill="#000000" />
<use x="48" y="372" xlink:href="#p" fill="#000000" />
<use x="60" y="372" xlink:href="#p" fill="#000000" />
<use x="72" y="372" xlink:href="#p" fill="#000000" />
<use x="96" y="372" xlink:href="#p" fill="#000000" />
<use x="132" y="372" xlink:href="#p" fill="#000000" />
<use x="168" y="372" xlink:href="#p" fill="#000000" />
<use x="180" y="372" xlink:href="#p" fill="#000000" />
<use x="216" y="372" xlink:href="#p" fill="#000000" />
<use x="240" y="372" xlink:href="#p" fill="#000000" />
<use x="252" y="372" xlink:href="#p" fill="#000000" />
<use x="264" y="372" xlink:href="#p" fill="#000000" />
<use x="276" y="372" xlink:href="#p" fill="#000000" />
<use x="288" y="372" xlink:href="#p" fill="#000000" />
<use x="312" y="372" xlink:href="#p" fill="#000000" />
<use x="324" y="372" xlink:href="#p" fill="#000000" />
<use x="360" y="372" xlink:href="#p" fill="#000000" />
<use x="384" y="372" xlink:href="#p" fill="#000000" />
<use x="396" y="372" xlink:href="#p" fill="#000000" />
<use x="408" y="372" xlink:href="#p" fill="#000000" />
<use x="24" y="384" xlink:href="#p" fill="#000000" />
<use x="48" y="384" xlink:href="#p" fill="#000000" />
<use x="60" y="384" xlink:href="#p" fill="#000000" />
<use x="72" y="384" xlink:href="#p" fill="#000000" />
<use x="96" y="384" xlink:href="#p" fill="#000000" />
<use x="120" y="384" xlink:href="#p" fill="#000000" />
<use x="144" y="384" xlink:href="#p" fill="#000000" />
<use x="156" y="384" xlink:href="#p" fill="#000000" />
<use x="216" y="384" xlink:href="#p" fill="#000000" />
<use x="228" y="384" xlink:href="#p" fill="#000000" />
<use x="240" y="384" xlink:href="#p" fill="#000000" />
<use x="264" y="384" xlink:href="#p" fill="#000000" />
<use x="276" y="384" xlink:href="#p" fill="#000000" />
<use x="288" y="384" xlink:href="#p" fill="#000000" />
<use x="312" y="384" xlink:href="#p" fill="#000000" />
<use x="324" y="384" xlink:href="#p" fill="#000000" />
<use x="348" y="384" xlink:href="#p" fill="#000000" />
<use x="360" y="384" xlink:href="#p" fill="#000000" />
<use x="372" y="384" xlink:href="#p" fill="#000000" />
<use x="408" y="384" xlink:href="#p" fill="#000000" />
<use x="24" y="396" xlink:href="#p" fill="#000000" />
<use x="96" y="396" xlink:href="#p" fill="#000000" />
<use x="132" y="396" xlink:href="#p" fill="#000000" />
<use x="156" y="396" xlink:href="#p" fill="#000000" />
<use x="168" y="396" xlink:href="#p" fill="#000000" />
<use x="180" y="396" xlink:href="#p" fill="#000000" />
<use x="192" y="396" xlink:href="#p" fill="#000000" />
<use x="204" y="396" xlink:href="#p" fill="#000000" />
<use x="216" y="396" xlink:href="#p" fill="#000000" />
<use x="252" y="396" xlink:href="#p" fill="#000000" />
<use x="276" y="396" xlink:href="#p" fill="#000000" />
<use x="300" y="396" xlink:href="#p" fill="#000000" />
<use x="312" y="396" xlink:href="#p" fill="#000000" />
<use x="324" y="396" xlink:href="#p" fill="#000000" />
<use x="348" y="396" xlink:href="#p" fill="#000000" />
<use x="396" y="396" xlink:href="#p" fill="#000000" />
<use x="24" y="408" xlink:href="#p" fill="#000000" />
<use x="36" y="408" xlink:href="#p" fill="#000000" />
<use x="48" y="408" xlink:href="#p" fill="#000000" />
<use x="60" y="408" xlink:href="#p" fill="#000000" />
<use x="72" y="408" xlink:href="#p" fill="#000000" />
<use x="84" y="408" xlink:href="#p" fill="#000000" />
<use x="96" y="408" xlink:href="#p" fill="#000000" />
<use x="132" y="408" xlink:href="#p" fill="#000000" />
<use x="144" y="408" xlink:href="#p" fill="#000000" />
<use x="168" y="408" xlink:href="#p" fill="#000000" />
<use x="192" y="408" xlink:href="#p" fill="#000000" />
<use x="216" y="408" xlink:href="#p" fill="#000000" />
<use x="264" y="408" xlink:href="#p" fill="#000000" />
<use x="312" y="408" xlink:href="#p" fill="#000000" />
<use x="348" y="408" xlink:href="#p" fill="#000000" />
<use x="360" y="408" xlink:href="#p" fill="#000000" />
<use x="396" y="408" xlink:href="#p" fill="#000000" />
<use x="408" y="408" xlink:href="#p" fill="#000000" />
</g>
</svg>